<?xml version="1.0" standalone="no"?>
<!DOCTYPE svg PUBLIC "-//W3C//DTD SVG 20010904//EN"
 "http://www.w3.org/TR/2001/REC-SVG-20010904/DTD/svg10.dtd">
<svg version="1.0" xmlns="http://www.w3.org/2000/svg"
 width="438.000000pt" height="438.000000pt" viewBox="0 0 438.000000 438.000000"
 preserveAspectRatio="xMidYMid meet">
<metadata>
Created by potrace 1.11, written by Peter Selinger 2001-2013
</metadata>
<g transform="translate(0.000000,438.000000) scale(0.100000,-0.100000)"
fill="#000000" stroke="none">
<path d="M3320 3420 c-53 -13 -207 -86 -278 -132 -87 -57 -106 -92 -202 -373
-55 -161 -80 -290 -81 -419 -1 -97 -24 -330 -34 -347 -4 -5 -12 -8 -18 -6 -7
2 -28 -4 -47 -15 -19 -10 -45 -18 -57 -18 -13 0 -30 -8 -39 -18 -13 -16 -27
-18 -91 -14 l-76 4 7 -28 c4 -16 9 -49 12 -73 3 -24 12 -58 22 -74 16 -28 16
-30 -2 -41 -54 -32 -243 -271 -253 -318 -3 -15 -11 -29 -17 -31 -14 -6 -69 6
-170 35 -38 11 -114 23 -170 25 -89 5 -113 2 -201 -22 -94 -25 -162 -55 -193
-83 -19 -17 -30 -7 -38 34 -7 37 -34 60 -51 43 -7 -7 -12 -4 -16 10 -3 12 -1
21 4 21 14 0 -24 49 -37 50 -15 0 -21 -26 -29 -131 -4 -48 -11 -92 -15 -99
-13 -21 -29 -2 -34 43 -3 23 -10 80 -17 127 -14 107 -13 151 6 196 8 20 15 44
15 54 0 9 8 28 19 41 70 89 78 149 27 203 -39 42 -74 46 -133 17 -21 -11 -50
-22 -65 -25 -15 -4 -35 -18 -45 -32 -10 -14 -44 -53 -75 -87 -32 -33 -61 -69
-64 -79 -4 -13 -13 -18 -27 -16 -17 2 -23 13 -29 47 -4 24 -12 49 -19 57 -19
23 -5 36 56 60 90 33 98 65 27 107 -47 28 -82 28 -134 0 -26 -14 -53 -23 -61
-20 -8 3 -33 41 -57 84 -35 65 -69 104 -199 232 -273 269 -300 287 -328 232
-9 -20 -9 -30 2 -52 8 -14 12 -29 9 -32 -3 -2 -9 -60 -15 -128 -5 -68 -12
-125 -15 -128 -3 -3 -14 0 -25 7 -11 7 -31 17 -45 22 l-24 10 0 -671 0 -670
34 6 c18 4 36 3 39 -2 3 -4 -1 -37 -8 -73 -7 -36 -16 -161 -19 -278 -5 -175
-10 -225 -26 -273 -17 -48 -20 -85 -20 -219 l0 -160 2190 0 2190 0 0 39 0 38
-90 5 c-109 7 -128 19 -132 87 l-3 46 -110 -2 c-62 -1 -111 -6 -113 -11 -4
-13 34 -49 71 -68 31 -17 33 -26 11 -49 -15 -14 -36 -15 -168 -10 -83 3 -182
2 -221 -2 -74 -9 -161 -1 -178 16 -7 7 -6 22 2 49 14 41 92 112 141 127 50 15
51 39 5 89 -69 76 -97 209 -71 336 26 123 124 365 194 480 15 24 22 51 22 86
0 64 19 83 155 156 l100 53 110 0 c138 -1 172 -17 211 -103 23 -49 24 -61 15
-93 -8 -27 -8 -45 0 -66 6 -15 19 -71 29 -123 l18 -95 1 568 1 567 -25 29
c-19 21 -32 27 -51 23 -37 -7 -39 -25 -10 -75 18 -31 30 -71 37 -129 10 -79
10 -87 -10 -126 -23 -46 -28 -48 -66 -30 -29 13 -33 36 -7 45 39 14 52 35 52
87 0 75 -17 101 -63 100 -43 -1 -47 13 -22 73 14 32 14 38 0 53 -22 24 -19 61
8 98 13 17 32 49 41 71 16 34 16 43 4 67 -17 36 -64 43 -120 18 -52 -23 -58
-14 -58 96 0 106 -14 190 -47 300 -83 270 -228 464 -422 564 -87 45 -91 46
-178 45 -48 -1 -104 -5 -123 -9z m119 -474 c75 -39 118 -130 112 -236 -2 -22
-5 -19 -26 21 -34 66 -79 101 -123 97 -52 -4 -78 -44 -75 -114 1 -30 -2 -54
-6 -54 -15 0 -54 44 -67 76 -25 59 -15 155 19 187 37 37 118 47 166 23z m399
-22 c53 -41 86 -122 86 -214 -1 -72 -14 -120 -34 -120 -6 0 -9 33 -8 76 1 60
-3 80 -18 101 -28 37 -47 47 -76 40 -34 -9 -52 -55 -51 -134 1 -72 8 -83 66
-111 23 -11 67 -45 97 -75 30 -30 70 -62 88 -71 35 -18 39 -32 19 -60 -18 -25
-181 -34 -235 -13 -20 8 -74 18 -120 22 -82 7 -82 7 -80 34 2 21 -2 27 -22 30
-14 1 -28 8 -31 13 -6 9 -92 18 -165 18 -12 0 -29 11 -38 25 -19 29 -15 33 79
59 33 10 79 26 103 37 23 10 55 19 70 19 15 0 38 9 52 20 14 11 37 20 52 20
43 0 50 26 34 120 -15 88 -9 139 20 171 24 27 71 24 112 -7z m-3601 -591 c64
-64 131 -88 219 -80 51 5 64 3 64 -7 0 -22 -59 -66 -87 -66 -14 0 -43 -5 -64
-11 -33 -10 -45 -9 -91 10 -72 31 -101 68 -106 142 -3 38 -1 59 6 59 6 0 33
-21 59 -47z m3741 -200 c43 -32 43 -54 -2 -51 -51 3 -66 -15 -66 -79 0 -61 11
-89 47 -119 43 -36 6 -59 -52 -32 -33 15 -82 87 -91 133 -16 87 23 169 84 177
32 4 37 2 80 -29z m-3428 17 c0 -5 -7 -10 -16 -10 -8 0 -12 5 -9 10 3 6 10 10
16 10 5 0 9 -4 9 -10z m2904 -34 c66 -17 77 -40 48 -104 -12 -26 -26 -74 -32
-107 -7 -33 -16 -80 -21 -104 -6 -24 -9 -113 -7 -198 1 -94 -1 -157 -8 -161
-5 -4 -25 -27 -44 -52 -19 -24 -49 -57 -67 -73 -18 -16 -35 -37 -39 -49 -3
-11 -15 -29 -25 -39 -19 -19 -19 -19 -30 3 -13 29 -120 118 -161 135 -38 16
-65 17 -70 1 -9 -27 13 -102 46 -156 19 -31 37 -75 41 -96 4 -22 17 -61 30
-87 14 -26 29 -78 35 -115 15 -96 46 -153 96 -178 61 -31 151 -114 196 -179
26 -39 48 -88 63 -144 26 -93 22 -116 -26 -164 -10 -10 -19 -26 -19 -34 0 -22
-53 -19 -67 4 -22 35 -95 64 -149 58 -58 -5 -172 -39 -223 -65 -37 -19 -71
-27 -164 -37 -26 -2 -56 -9 -67 -15 -36 -19 -65 -10 -139 45 -41 30 -85 56
-98 56 -12 1 -29 2 -35 2 -46 3 -119 -16 -144 -38 -55 -48 -75 -29 -119 114
-45 146 -46 219 -5 316 42 98 85 211 100 265 11 36 35 112 55 169 20 58 33
111 30 119 -10 25 -31 -4 -55 -76 -26 -78 -55 -131 -104 -187 -55 -63 -46 -18
25 126 77 155 89 169 146 169 33 0 45 4 49 18 3 9 10 24 15 32 5 8 13 24 18
35 5 11 23 29 40 40 17 11 31 23 31 28 0 4 11 7 24 7 14 0 37 5 53 11 15 6 68
15 118 20 74 8 99 6 141 -7 70 -22 86 -17 96 29 4 21 19 54 33 75 14 20 25 40
25 45 0 5 11 23 24 40 44 59 127 239 141 307 26 126 63 194 109 203 35 7 39 7
90 -7z m-2803 -106 c37 -50 -2 -86 -83 -75 -50 6 -116 75 -73 75 9 0 18 7 21
15 4 10 20 13 61 12 47 -2 59 -7 74 -27z m-349 -131 c11 -22 22 -97 33 -222
15 -170 15 -190 1 -211 l-15 -24 -53 28 c-29 15 -77 33 -106 40 -28 7 -55 16
-58 21 -3 5 -21 9 -40 9 -51 0 -41 17 20 35 126 37 160 88 162 241 0 56 4 106
8 113 12 19 30 8 48 -30z m3902 -105 c17 -3 52 -15 78 -26 36 -16 48 -26 53
-49 7 -32 -21 -176 -37 -185 -23 -14 -96 -14 -137 1 -24 8 -70 15 -102 15 -77
0 -178 47 -269 123 -31 26 -32 29 -16 46 10 11 34 21 54 24 87 11 159 29 184
48 32 23 46 23 72 4 23 -17 46 -4 46 27 0 18 1 18 21 -1 12 -11 36 -23 53 -27z
m-3140 -254 c13 -13 21 -37 24 -74 4 -47 0 -65 -23 -110 -15 -30 -24 -59 -21
-64 10 -16 132 4 180 30 17 9 18 7 13 -14 -4 -12 -7 -29 -7 -37 0 -9 -4 -10
-12 -4 -7 5 -30 10 -51 12 -37 3 -38 2 -27 -19 16 -30 4 -57 -40 -86 -45 -30
-72 -28 -80 6 -11 48 -182 106 -205 70 -3 -5 -25 -10 -48 -10 -36 0 -47 6 -76
37 -19 21 -48 45 -65 54 -25 13 -30 22 -28 44 4 35 39 90 86 135 31 29 49 37
109 47 102 16 246 7 271 -17z m803 -115 c12 -9 32 -34 44 -57 27 -52 28 -167
3 -207 -31 -50 -87 -85 -141 -90 -7 0 -13 -6 -13 -12 0 -6 -7 -17 -15 -25 -9
-9 -15 -34 -15 -61 0 -41 -10 -70 -74 -213 -11 -25 -29 -53 -72 -110 -23 -31
-54 -80 -68 -109 l-27 -53 -25 33 c-19 26 -24 29 -24 14 0 -18 -1 -18 -17 -2
-22 22 -22 116 -1 271 14 100 17 111 44 133 16 12 34 23 39 23 6 0 25 13 43
29 24 22 32 39 32 63 0 18 8 53 16 78 21 58 18 124 -8 176 -11 23 -18 49 -16
59 5 29 65 58 143 72 78 13 118 10 152 -12z m-1336 -226 c10 -20 9 -21 -14
-15 -25 6 -57 -13 -57 -35 0 -6 -4 -7 -10 -4 -15 9 -12 42 6 59 22 23 61 20
75 -5z m137 -1 c2 -11 -3 -18 -12 -18 -8 0 -21 -9 -29 -21 l-15 -21 -7 21
c-11 36 3 63 33 59 16 -2 28 -10 30 -20z m-40 -77 c9 -5 25 -12 34 -15 12 -3
15 -11 11 -22 -5 -13 -15 -15 -51 -10 -25 3 -67 6 -93 6 -69 0 -61 18 11 26
33 4 60 11 60 15 0 11 6 11 28 0z m99 -280 c30 -64 62 -132 70 -151 10 -22 17
-72 19 -135 1 -55 8 -118 16 -140 25 -76 93 -84 154 -19 36 38 40 36 50 -23 3
-22 17 -53 30 -68 28 -33 28 -30 9 -59 -16 -24 -190 -116 -220 -116 -36 0 -55
20 -55 58 0 20 -7 50 -15 66 -9 16 -14 35 -11 42 3 7 0 28 -6 48 -13 40 -28
31 -28 -16 0 -19 -12 -37 -46 -64 -39 -33 -56 -39 -112 -45 -59 -6 -68 -10
-97 -44 -31 -38 -32 -38 -85 -31 -30 4 -83 17 -119 30 -36 13 -83 26 -103 30
-21 4 -42 15 -47 24 -5 10 -7 55 -4 100 l6 83 44 29 c24 17 47 30 50 30 4 0
14 6 22 14 9 8 28 17 43 21 23 6 31 0 68 -49 48 -63 79 -73 106 -31 22 33 10
61 -39 93 -23 14 -58 39 -78 54 l-37 28 19 63 c19 62 95 226 121 260 10 13 31
18 89 21 41 2 84 8 95 14 10 6 23 8 27 5 5 -3 34 -58 64 -122z m1489 -2 c-8
-42 -45 -123 -52 -116 -3 3 4 32 15 64 12 32 24 64 26 71 9 25 17 11 11 -19z
m-1196 -295 c0 -8 -4 -12 -10 -9 -5 3 -10 13 -10 21 0 8 5 12 10 9 6 -3 10
-13 10 -21z"/>
<path d="M1642 1347 c-22 -23 -27 -51 -16 -82 10 -24 60 -46 89 -39 31 8 65
49 65 78 0 61 -94 90 -138 43z"/>
<path d="M1696 1001 c-4 -7 -5 -15 -2 -18 9 -9 19 4 14 18 -4 11 -6 11 -12 0z"/>
<path d="M1600 988 c0 -5 18 -8 40 -8 22 0 40 2 40 4 0 2 -18 6 -40 8 -22 2
-40 0 -40 -4z"/>
<path d="M534 676 c-10 -27 15 -46 60 -46 49 0 69 11 60 33 -4 12 -17 16 -42
15 -21 -1 -45 2 -54 6 -12 6 -20 3 -24 -8z"/>
<path d="M1572 2194 c-20 -8 -34 -24 -42 -48 -12 -38 -6 -111 11 -122 5 -3 9
-13 9 -24 0 -10 7 -20 15 -24 9 -3 15 -18 15 -38 0 -18 6 -44 13 -58 13 -26
75 -53 92 -40 6 4 23 10 39 14 17 4 42 16 57 26 30 22 259 110 286 110 44 1
60 51 18 58 -11 2 -47 16 -80 32 -125 59 -211 87 -342 114 -49 10 -68 10 -91
0z"/>
<path d="M2243 2040 c-26 -11 -28 -16 -10 -34 31 -32 100 -26 114 10 11 30
-52 45 -104 24z"/>
<path d="M1512 1700 c-12 -12 -22 -25 -22 -30 0 -6 -7 -10 -15 -10 -8 0 -15
-4 -15 -10 0 -5 -18 -14 -40 -20 -22 -6 -40 -13 -40 -16 0 -13 31 -34 50 -34
12 0 29 -4 38 -9 43 -22 92 37 92 114 0 40 -15 45 -48 15z"/>
<path d="M4350 350 c0 -6 7 -10 15 -10 8 0 15 2 15 4 0 2 -7 6 -15 10 -8 3
-15 1 -15 -4z"/>
</g>
</svg>
